<?xml version="1.0" encoding="UTF-8" standalone="no"?>
<!-- Created with Inkscape (http://www.inkscape.org/) -->

<svg
   xmlns:dc="http://purl.org/dc/elements/1.1/"
   xmlns:cc="http://creativecommons.org/ns#"
   xmlns:rdf="http://www.w3.org/1999/02/22-rdf-syntax-ns#"
   xmlns:svg="http://www.w3.org/2000/svg"
   xmlns="http://www.w3.org/2000/svg"
   xmlns:sodipodi="http://sodipodi.sourceforge.net/DTD/sodipodi-0.dtd"
   xmlns:inkscape="http://www.inkscape.org/namespaces/inkscape"
   width="30mm"
   height="30mm"
   viewBox="0 0 30 30"
   version="1.1"
   id="svg8"
   inkscape:version="0.92.4 5da689c313, 2019-01-14"
   sodipodi:docname="smokenetwork.svg">
  <sodipodi:namedview
     id="base"
     pagecolor="#ffffff"
     bordercolor="#666666"
     borderopacity="1.0"
     inkscape:pageopacity="0.0"
     inkscape:pageshadow="2"
     inkscape:zoom="5.6"
     inkscape:cx="21.560631"
     inkscape:cy="51.135857"
     inkscape:document-units="mm"
     inkscape:current-layer="layer1"
     showgrid="false"
     inkscape:window-width="2560"
     inkscape:window-height="1025"
     inkscape:window-x="0"
     inkscape:window-y="0"
     inkscape:window-maximized="1" />
  <metadata
     id="metadata5">
    <rdf:RDF>
      <cc:Work
         rdf:about="">
        <dc:format>image/svg+xml</dc:format>
        <dc:type
           rdf:resource="http://purl.org/dc/dcmitype/StillImage" />
        <dc:title></dc:title>
      </cc:Work>
    </rdf:RDF>
  </metadata>
  <g
     inkscape:label="Layer 1"
     inkscape:groupmode="layer"
     id="layer1"
     transform="translate(0,-267)">
    <path
       inkscape:connector-curvature="0"
       id="path920"
       d="m 14.821464,293.03722 v -0.99953 l -0.398909,-0.0333 c -0.528586,-0.0441 -1.317586,-0.19626 -1.982524,-0.38239 -3.6113652,-1.01088 -6.468803,-3.73215 -7.6028774,-7.24056 -1.2183807,-3.76923 -0.2377285,-7.91301 2.5632879,-10.83127 1.3671714,-1.42439 3.2328625,-2.52591 5.0898505,-3.00507 0.885264,-0.22843 1.291205,-0.28258 2.318075,-0.30926 1.093021,-0.0284 1.611838,0.016 2.511549,0.21467 4.391043,0.96978 8.012872,5.21663 8.503573,9.97107 0.08812,0.85379 0.03358,2.13968 -0.122575,2.88996 -0.355309,1.7072 -1.160547,3.33496 -2.444638,4.94177 -0.502656,0.62898 -1.804411,1.93619 -2.509439,2.51997 -1.638836,1.35696 -3.39854,2.38366 -5.212398,3.04115 -0.337259,0.12226 -0.635648,0.22228 -0.663086,0.22228 -0.03215,0 -0.04989,-0.3554 -0.04989,-0.99952 z m -2.30394,-6.0444 c 0.956938,-0.14425 1.648827,-0.53754 2.254838,-1.28171 0.148533,-0.1824 0.315584,-0.38629 0.371225,-0.4531 l 0.101166,-0.12146 0.252798,0.3177 c 0.562784,0.70726 1.139066,1.15067 1.770358,1.36219 0.299434,0.10033 1.123101,0.24697 1.390545,0.24757 0.127354,3.7e-4 0.128924,-0.004 0.08297,-0.2084 -0.07408,-0.33004 -0.277409,-0.90755 -0.454407,-1.29064 l -0.162609,-0.35195 0.534602,-0.058 c 1.017569,-0.11036 2.08593,-0.44517 3.036694,-0.95165 0.512126,-0.27281 1.24685,-0.73378 1.295801,-0.81299 0.05659,-0.0916 -1.129365,-0.49936 -2.007776,-0.69038 -0.55937,-0.12164 -1.04962,-0.19423 -1.658157,-0.24552 -0.263843,-0.0222 -0.49333,-0.054 -0.509973,-0.0707 -0.01664,-0.0166 0.09832,-0.16904 0.255464,-0.33865 1.359848,-1.46773 2.041367,-2.85665 2.147002,-4.37553 l 0.01991,-0.28632 -0.169539,0.0318 c -0.538324,0.10098 -1.692664,0.57464 -2.24484,0.92112 -0.466865,0.29295 -1.03305,0.76286 -1.492437,1.23867 l -0.460955,0.47743 0.02644,-0.38532 c 0.03699,-0.53913 -0.04538,-1.69336 -0.165298,-2.31613 -0.136162,-0.70715 -0.393414,-1.49029 -0.70793,-2.15511 -0.258517,-0.54644 -0.771435,-1.38893 -0.845604,-1.38893 -0.05318,0 -0.504479,0.73113 -0.724831,1.17428 -0.398181,0.80078 -0.690326,1.74106 -0.837588,2.69581 -0.07568,0.49065 -0.102799,1.99631 -0.04055,2.25112 0.02785,0.11398 -0.07227,0.0364 -0.551588,-0.42764 -0.914147,-0.88497 -1.891515,-1.47604 -3.118185,-1.88576 -0.74403,-0.24852 -0.7020221,-0.26773 -0.6653946,0.30446 0.086496,1.35123 0.717081,2.58328 2.1160976,4.13447 0.38502,0.4269 0.394507,0.41329 -0.322362,0.46227 -0.632314,0.0432 -1.4265202,0.19006 -2.1360601,0.39497 -0.6874517,0.19854 -1.4411489,0.46669 -1.4411489,0.51274 0,0.0645 0.8221957,0.57334 1.3993997,0.86598 0.9397305,0.47645 2.0707163,0.81892 2.9277133,0.88655 0.199157,0.0158 0.4114,0.0385 0.471652,0.0507 l 0.109549,0.0221 -0.126963,0.28163 c -0.140243,0.31109 -0.431178,1.1416 -0.483727,1.38085 -0.03234,0.14724 -0.02756,0.15286 0.129906,0.15258 0.08991,-1.4e-4 0.37512,-0.0322 0.633789,-0.0711 z"
       style="fill:#00c200;stroke-width:0.04910173" />
  </g>
</svg>
