<?xml version="1.0" encoding="UTF-8" standalone="no"?>
<!-- Created with Inkscape (http://www.inkscape.org/) -->

<svg
   xmlns:dc="http://purl.org/dc/elements/1.1/"
   xmlns:cc="http://creativecommons.org/ns#"
   xmlns:rdf="http://www.w3.org/1999/02/22-rdf-syntax-ns#"
   xmlns:svg="http://www.w3.org/2000/svg"
   xmlns="http://www.w3.org/2000/svg"
   xmlns:sodipodi="http://sodipodi.sourceforge.net/DTD/sodipodi-0.dtd"
   xmlns:inkscape="http://www.inkscape.org/namespaces/inkscape"
   width="27.20632mm"
   height="27.20632mm"
   viewBox="0 0 27.20632 27.20632"
   version="1.1"
   id="svg8"
   inkscape:version="0.92.4 5da689c313, 2019-01-14"
   sodipodi:docname="steem.svg">
  <defs
     id="defs2" />
  <sodipodi:namedview
     id="base"
     pagecolor="#ffffff"
     bordercolor="#666666"
     borderopacity="1.0"
     inkscape:pageopacity="0.0"
     inkscape:pageshadow="2"
     inkscape:zoom="2.8"
     inkscape:cx="-168.12048"
     inkscape:cy="49.224411"
     inkscape:document-units="mm"
     inkscape:current-layer="layer1"
     showgrid="false"
     inkscape:window-width="2560"
     inkscape:window-height="1025"
     inkscape:window-x="0"
     inkscape:window-y="0"
     inkscape:window-maximized="1" />
  <metadata
     id="metadata5">
    <rdf:RDF>
      <cc:Work
         rdf:about="">
        <dc:format>image/svg+xml</dc:format>
        <dc:type
           rdf:resource="http://purl.org/dc/dcmitype/StillImage" />
        <dc:title />
      </cc:Work>
    </rdf:RDF>
  </metadata>
  <g
     inkscape:label="Layer 1"
     inkscape:groupmode="layer"
     id="layer1"
     transform="translate(-4.0927923,-270.09372)">
    <path
       inkscape:connector-curvature="0"
       style="fill:#4ea1ee;stroke-width:0.43245289"
       d="m 17.974264,291.65721 c 0.218277,-2.1149 0.05176,-2.7193 -1.931307,-7.01042 -2.530946,-5.47662 -2.953778,-7.07143 -2.241577,-8.45457 0.558517,-1.08467 2.580659,-3.37687 2.979029,-3.37687 0.1356,0 0.177544,0.86762 0.09321,1.92804 -0.127438,1.60235 0.230014,2.75289 2.11611,6.81114 2.853675,6.14014 3.088315,7.77813 1.42113,9.92068 -0.675324,0.86788 -1.553574,1.78463 -1.951663,2.03721 -0.653135,0.41441 -0.700476,0.23329 -0.484927,-1.85521 z"
       id="path1022" />
    <path
       inkscape:connector-curvature="0"
       style="fill:#1b5098;stroke-width:0.43245289"
       d="m 11.015135,290.11346 c 0.199741,-1.64139 -0.03941,-2.56449 -1.527666,-5.89663 -1.9865276,-4.44774 -2.1644831,-6.01934 -0.8681878,-7.66731 1.1579396,-1.47209 1.5932748,-1.44364 1.3682748,0.0894 -0.1215676,0.8283 0.466654,2.64033 1.80471,5.55941 1.091786,2.38181 1.985062,4.81277 1.985062,5.40213 0,0.60877 -0.647608,1.80306 -1.499505,2.76531 l -1.499503,1.69375 z"
       id="path1064" />
    <path
       inkscape:connector-curvature="0"
       style="fill:#1b5098;stroke-width:0.43245289"
       d="m 24.864958,290.09863 c 0.200258,-1.58251 0.0233,-2.41705 -0.916939,-4.32453 -0.640798,-1.29999 -1.532916,-3.40325 -1.98249,-4.67393 -0.723085,-2.04375 -0.746946,-2.44657 -0.206787,-3.49113 0.335836,-0.64943 0.91535,-1.4337 1.287808,-1.74283 0.591815,-0.49116 0.67744,-0.37814 0.679144,0.89642 0.0011,0.82644 0.84353,3.23865 1.944087,5.56672 1.068175,2.25957 1.943014,4.61103 1.944086,5.22549 0.0012,0.66286 -0.607868,1.80603 -1.497552,2.81095 l -1.499506,1.69374 z"
       id="path963" />
  </g>
</svg>
