<?xml version="1.0" encoding="UTF-8" standalone="no"?>
<!-- Created with Inkscape (http://www.inkscape.org/) -->

<svg
   xmlns:dc="http://purl.org/dc/elements/1.1/"
   xmlns:cc="http://creativecommons.org/ns#"
   xmlns:rdf="http://www.w3.org/1999/02/22-rdf-syntax-ns#"
   xmlns:svg="http://www.w3.org/2000/svg"
   xmlns="http://www.w3.org/2000/svg"
   xmlns:sodipodi="http://sodipodi.sourceforge.net/DTD/sodipodi-0.dtd"
   xmlns:inkscape="http://www.inkscape.org/namespaces/inkscape"
   width="27.20632mm"
   height="27.20632mm"
   viewBox="0 0 27.20632 27.20632"
   version="1.1"
   id="svg8"
   inkscape:version="0.92.4 5da689c313, 2019-01-14"
   sodipodi:docname="bitshares.svg">
  <defs
     id="defs2" />
  <sodipodi:namedview
     id="base"
     pagecolor="#ffffff"
     bordercolor="#666666"
     borderopacity="1.0"
     inkscape:pageopacity="0.0"
     inkscape:pageshadow="2"
     inkscape:zoom="2.8"
     inkscape:cx="50.61956"
     inkscape:cy="55.994473"
     inkscape:document-units="mm"
     inkscape:current-layer="layer1"
     showgrid="false"
     inkscape:window-width="2560"
     inkscape:window-height="1025"
     inkscape:window-x="0"
     inkscape:window-y="0"
     inkscape:window-maximized="1" />
  <metadata
     id="metadata5">
    <rdf:RDF>
      <cc:Work
         rdf:about="">
        <dc:format>image/svg+xml</dc:format>
        <dc:type
           rdf:resource="http://purl.org/dc/dcmitype/StillImage" />
        <dc:title></dc:title>
      </cc:Work>
    </rdf:RDF>
  </metadata>
  <g
     inkscape:label="Layer 1"
     inkscape:groupmode="layer"
     id="layer1"
     transform="translate(-4.0927923,-270.09372)">
    <path
       inkscape:connector-curvature="0"
       id="path884"
       d="m 15.879654,296.9134 c -0.52163,-0.15011 -1.441405,-0.58414 -2.043942,-0.9645 -1.057875,-0.66781 -1.077605,-0.70847 -0.574139,-1.18329 0.28676,-0.27045 1.160642,-1.10802 1.941959,-1.86127 1.106393,-1.06665 1.552364,-1.32772 2.016448,-1.18042 0.550865,0.17483 0.59587,0.39018 0.59587,2.85121 0,2.94348 0.03213,2.90468 -1.936196,2.33827 z m 3.065085,-2.30686 c 0,-2.49545 0.04394,-2.70745 0.5976,-2.88317 0.477937,-0.15169 0.958291,0.16781 2.398889,1.59561 0.990709,0.9819 1.801288,1.86401 1.801288,1.96024 0,0.32337 -2.670561,1.62643 -3.739444,1.8246 l -1.058333,0.19622 z m -7.743862,-1.11338 c -0.482995,-0.73714 -1.287251,-2.91645 -1.287251,-3.48809 0,-0.30145 0.590481,-0.38785 2.650917,-0.38785 3.516407,0 3.655591,0.3046 1.248825,2.73295 -0.971724,0.98043 -1.86276,1.78261 -1.980083,1.78261 -0.117322,0 -0.401906,-0.28783 -0.632408,-0.63962 z m 11.649526,-1.26538 c -1.025614,-1.04775 -1.805375,-2.06375 -1.732801,-2.25778 0.0934,-0.2497 0.95129,-0.35278 2.936032,-0.35278 h 2.804079 l -0.173135,0.77612 c -0.226788,1.01661 -1.51628,3.73944 -1.770943,3.73944 -0.109164,0 -1.037618,-0.85725 -2.063232,-1.905 z M 9.913626,284.75061 v -3.4555 l 2.816428,2.8205 c 2.325948,2.32931 2.787132,2.93109 2.648197,3.4555 -0.159345,0.60145 -0.308147,0.635 -2.816429,0.635 H 9.913626 Z m 11.310799,2.932 c -0.233935,-0.43712 0.02862,-0.8308 1.590954,-2.38547 1.029119,-1.02408 1.978043,-1.79589 2.10872,-1.71513 0.421096,0.26026 1.445915,2.47569 1.649456,3.56577 l 0.197615,1.05833 h -2.633286 c -2.275806,0 -2.671321,-0.0711 -2.913459,-0.5235 z m -8.161273,-4.983 -3.149526,-3.27618 v -4.66485 -4.66486 l 0.917222,0.77072 c 0.504473,0.42389 2.221999,1.92076 3.816725,3.32638 l 2.899503,2.55566 -0.07728,4.53037 c -0.100896,5.91485 -0.0912,5.91172 -4.406644,1.42276 z m 6.069735,3.06058 c -0.103481,-0.10348 -0.188148,-1.38357 -0.188148,-2.84465 v -2.6565 l 0.917222,0.19798 c 0.939052,0.20269 2.884252,1.09301 3.543225,1.62173 0.286556,0.22992 -0.02461,0.69181 -1.402958,2.08252 -1.639187,1.65389 -2.393845,2.07441 -2.869341,1.59892 z"
       style="fill:#2dbaef" />
  </g>
</svg>
