<?xml version="1.0" encoding="UTF-8" standalone="no"?>
<svg
   xmlns:dc="http://purl.org/dc/elements/1.1/"
   xmlns:cc="http://creativecommons.org/ns#"
   xmlns:rdf="http://www.w3.org/1999/02/22-rdf-syntax-ns#"
   xmlns:svg="http://www.w3.org/2000/svg"
   xmlns="http://www.w3.org/2000/svg"
   id="svg8"
   version="1.1"
   viewBox="0 0 79.374998 79.375002"
   height="300"
   width="300">
  <defs
     id="defs2">
    <clipPath
       clipPathUnits="userSpaceOnUse"
       id="clipPath916">
      <path
         d="M 0,706 H 861 V 0 H 0 Z"
         id="path914" />
    </clipPath>
    <clipPath
       id="clipPath890"
       clipPathUnits="userSpaceOnUse">
      <path
         id="path888-3"
         d="M 0,706 H 861 V 0 H 0 Z" />
    </clipPath>
  </defs>
  <metadata
     id="metadata5">
    <rdf:RDF>
      <cc:Work
         rdf:about="">
        <dc:format>image/svg+xml</dc:format>
        <dc:type
           rdf:resource="http://purl.org/dc/dcmitype/StillImage" />
        <dc:title></dc:title>
      </cc:Work>
    </rdf:RDF>
  </metadata>
  <g>
  <path
     d="M 38.949219,6.3457031 A 0.78970336,0.78970336 0 0 0 38.345703,6.6796875 L 23.638672,27.472656 a 0.78970336,0.78970336 0 0 0 -0.125,0.275391 l -7.785156,33.197265 a 0.78970336,0.78970336 0 0 0 0.36914,0.859376 l 22.488282,13.267578 a 0.78970336,0.78970336 0 0 0 0.798828,0.002 L 62.003906,61.814453 A 0.78970336,0.78970336 0 0 0 62.375,60.955078 L 54.734375,27.765625 A 0.78970336,0.78970336 0 0 0 54.605469,27.482422 L 39.630859,6.6738281 a 0.78970336,0.78970336 0 0 0 -0.68164,-0.328125 z M 40.058594,10.917969 52.480469,28.179688 49.271484,38.263672 40.0625,22.349609 Z m -2.132813,0.04687 0.0039,11.371094 -9.076172,15.757812 -3.101563,-9.916016 z m 1.06836,13.798828 9.404297,16.248047 -5.976563,18.777343 -6.787109,-0.002 -5.916016,-18.921875 z m 14.53125,7.285156 5.183593,22.492188 -4.904296,-8.447266 -3.046876,-5.261719 z m -28.873047,0.002 2.714844,8.621094 -7.839844,13.611328 z m 25.185547,11.462891 2.130859,3.667969 7.298828,12.611328 -14.605469,-0.0039 z m -21.517579,0.0293 5.078126,16.24414 -14.50586,-0.0039 z m 8.111329,18.375 5.296875,0.002 -2.71875,8.589844 z m -15.796875,0.002 13.433593,0.002 3.083985,9.841797 z m 23.349609,0.002 13.529297,0.0059 -16.664063,9.837891 z"
     id="path878"
     style="fill:#000000;fill-opacity:1;fill-rule:nonzero;stroke:none;stroke-width:0.13847449" />
  </g>
</svg>
