<?xml version="1.0" encoding="UTF-8" standalone="no"?>
<!-- Created with Inkscape (http://www.inkscape.org/) -->

<svg
   xmlns:dc="http://purl.org/dc/elements/1.1/"
   xmlns:cc="http://creativecommons.org/ns#"
   xmlns:rdf="http://www.w3.org/1999/02/22-rdf-syntax-ns#"
   xmlns:svg="http://www.w3.org/2000/svg"
   xmlns="http://www.w3.org/2000/svg"
   xmlns:sodipodi="http://sodipodi.sourceforge.net/DTD/sodipodi-0.dtd"
   xmlns:inkscape="http://www.inkscape.org/namespaces/inkscape"
   width="27.20632mm"
   height="27.20632mm"
   viewBox="0 0 27.20632 27.20632"
   version="1.1"
   id="svg8"
   inkscape:version="0.92.4 5da689c313, 2019-01-14"
   sodipodi:docname="whaleshares.svg">
  <defs
     id="defs2" />
  <sodipodi:namedview
     id="base"
     pagecolor="#ffffff"
     bordercolor="#666666"
     borderopacity="1.0"
     inkscape:pageopacity="0.0"
     inkscape:pageshadow="2"
     inkscape:zoom="3.959798"
     inkscape:cx="97.785695"
     inkscape:cy="57.104664"
     inkscape:document-units="mm"
     inkscape:current-layer="layer1"
     showgrid="false"
     inkscape:window-width="2560"
     inkscape:window-height="1025"
     inkscape:window-x="0"
     inkscape:window-y="0"
     inkscape:window-maximized="1" />
  <metadata
     id="metadata5">
    <rdf:RDF>
      <cc:Work
         rdf:about="">
        <dc:format>image/svg+xml</dc:format>
        <dc:type
           rdf:resource="http://purl.org/dc/dcmitype/StillImage" />
        <dc:title></dc:title>
      </cc:Work>
    </rdf:RDF>
  </metadata>
  <g
     inkscape:label="Layer 1"
     inkscape:groupmode="layer"
     id="layer1"
     transform="translate(-4.0927923,-270.09372)">
    <path
       inkscape:connector-curvature="0"
       id="path890"
       d="m 15.166867,294.39016 c -2.198985,-0.57197 -3.858438,-1.50205 -5.3738583,-3.0119 -1.2650669,-1.26043 -1.6097126,-2.13579 -1.6097126,-4.08852 0,-2.46643 0.9553382,-4.33783 2.6774389,-5.24484 0.578158,-0.3045 0.704271,-0.32478 2.004108,-0.32226 1.30402,0.002 1.439065,0.025 2.254077,0.37595 0.476825,0.20527 1.387125,0.73685 2.02289,1.18126 2.449177,1.71206 3.635446,2.19689 5.375176,2.19689 0.757573,0 1.200152,-0.063 1.666114,-0.2374 0.785916,-0.29404 1.651511,-1.057 2.068582,-1.8233 0.403942,-0.74218 0.777706,-2.19959 0.758395,-2.95721 -0.01358,-0.53278 -0.02423,-0.50646 -0.112679,0.27857 -0.155016,1.37581 -0.560492,2.45246 -1.240723,3.29442 -0.28216,0.34925 -1.252311,1.09814 -1.42258,1.09814 -0.05039,0 -0.06026,-0.4067 -0.02194,-0.90379 0.208754,-2.70705 -1.180928,-5.13165 -3.644823,-6.35919 -0.531869,-0.26499 -1.046075,-0.4818 -1.142681,-0.4818 -0.09661,0 -0.29422,0.12794 -0.439139,0.28432 -0.389272,0.42002 -0.717129,0.45329 -2.020283,0.20497 -1.073658,-0.20457 -1.246446,-0.20991 -1.945781,-0.06 -0.98795,0.21178 -2.233013,0.15487 -2.531993,-0.11569 -0.211111,-0.19106 -0.243733,-0.18358 -0.730953,0.16737 -2.1924343,1.57928 -3.4544557,3.29221 -3.9890624,5.41431 -0.2306956,0.91574 -0.2989636,2.98524 -0.1353667,4.10358 l 0.084549,0.57796 -0.2101187,-0.46237 c -0.8998785,-1.98022 -0.9724469,-4.9423 -0.179559,-7.3292 0.570502,-1.71743 1.2756781,-2.8552 2.5902515,-4.17927 1.2204523,-1.22928 2.0600393,-1.82577 3.3516413,-2.38125 1.567986,-0.67432 2.642572,-0.89222 4.393138,-0.89082 1.696054,0.001 2.467435,0.14464 4.069889,0.7559 2.079565,0.79324 4.733892,3.09504 5.072951,4.39917 l 0.09826,0.37796 -0.03541,-0.38123 c -0.04898,-0.52752 0.14827,-0.30791 0.663781,0.73904 0.541347,1.09943 0.840126,2.01701 1.051574,3.22955 0.222876,1.27805 0.222354,2.18485 -0.0019,3.47135 -0.774877,4.44348 -3.774861,7.76522 -8.144819,9.01836 -0.421521,0.12089 -1.278501,0.19778 -2.543062,0.22816 -1.584888,0.0381 -2.04574,0.0103 -2.726302,-0.16719 z m -0.475587,-8.72161 c 0.09569,-0.24936 -0.0966,-0.44634 -0.394589,-0.40421 -0.182849,0.0258 -0.28837,0.12674 -0.312849,0.29911 -0.03118,0.21949 0.01649,0.26007 0.305515,0.26007 0.188349,0 0.369214,-0.0697 0.401923,-0.15497 z m 12.301148,-7.09695 c -0.02657,-0.1757 -0.04902,-0.0594 -0.04989,0.2585 -8.31e-4,0.31789 0.02087,0.46165 0.0483,0.31948 0.02743,-0.14218 0.02815,-0.40226 0.0015,-0.57798 z m -12.797985,-1.13301 c 0.358349,-0.18004 0.642066,-0.49509 0.742181,-0.82415 0.05938,-0.19517 -0.0079,-0.31469 -0.304209,-0.54066 -0.919078,-0.70085 -2.617817,-1.30507 -3.22368,-1.14663 -0.694164,0.18153 0.32287,2.01496 1.418399,2.55698 0.50065,0.2477 0.803761,0.23762 1.367309,-0.0455 z m 6.308071,4.38893 c -0.269935,-0.26994 -0.03978,-0.62775 0.403786,-0.62775 0.461434,0 0.581545,0.31129 0.229963,0.59599 -0.320999,0.25993 -0.401546,0.26396 -0.633749,0.0318 z"
       style="fill:#adbae1;stroke-width:0.11559372" />
    <path
       inkscape:connector-curvature="0"
       id="path888"
       d="m 16.010504,294.49071 c -2.442162,-0.38702 -5.000578,-1.79119 -6.6453325,-3.64723 -0.8335853,-0.94066 -1.1117266,-1.83333 -1.1139277,-3.57504 -0.00315,-2.50144 0.9344352,-4.30882 2.6812512,-5.16857 0.722503,-0.35559 0.846101,-0.37939 1.93011,-0.37167 1.02183,0.008 1.269861,0.0523 2.106897,0.38217 0.58177,0.22931 1.431259,0.71471 2.196282,1.25495 2.402886,1.69689 4.011996,2.31369 5.745688,2.20242 1.966656,-0.1262 3.362976,-1.36949 3.931948,-3.50101 0.239731,-0.8981 0.344045,-2.69366 0.209856,-3.6123 -0.05804,-0.39735 -0.08483,-0.72246 -0.05954,-0.72246 0.113187,0 1.074341,2.22339 1.299231,3.00543 0.316895,1.10201 0.440763,3.42889 0.24342,4.57276 -0.194848,1.12941 -0.717181,2.61592 -1.281063,3.64579 -0.623235,1.13827 -1.845516,2.56685 -2.846583,3.32703 -1.013548,0.76965 -2.843639,1.66811 -4.030309,1.97863 -1.061157,0.27768 -3.31541,0.39591 -4.36793,0.2291 z m 3.963352,-0.29089 c 4.176142,-0.98467 7.257512,-4.04217 8.283996,-8.21984 0.312747,-1.27286 0.274361,-3.63225 -0.08153,-5.01139 l -0.283382,-1.09814 -0.07262,1.7917 c -0.118018,2.91204 -0.704838,4.42859 -2.350343,6.0741 -1.191043,1.19104 -2.429734,1.88744 -2.963736,1.66625 -0.329611,-0.13653 -0.671239,-0.12732 -2.705776,0.0728 -0.454065,0.0447 -0.965473,0.004 -1.480992,-0.1157 -1.226628,-0.28653 -1.658809,-0.25016 -2.053944,0.17283 l -0.333269,0.35677 -0.578838,-0.19226 c -0.821366,-0.27281 -2.157184,-1.17995 -2.839804,-1.92845 -1.118696,-1.22667 -1.751739,-3.04361 -1.633936,-4.68966 0.05857,-0.81842 0.05453,-0.83444 -0.178972,-0.70947 -0.8801703,0.47106 -1.8436297,1.92659 -2.1630378,3.26779 -0.1794542,0.75352 -0.1619541,2.62848 0.03212,3.4412 0.1910321,0.79997 0.7434997,1.57782 1.8156778,2.55638 1.621791,1.48018 3.714866,2.42475 6.178373,2.78823 0.617227,0.0911 2.638154,-0.0412 3.410014,-0.22322 z m 2.311875,-2.16591 c -0.948854,-0.33128 -2.080834,-1.05234 -2.080255,-1.32511 0.0014,-0.70087 1.067409,-1.40918 1.888758,-1.25509 0.825266,0.15481 2.10585,1.71971 2.019707,2.46811 -0.03319,0.28833 -0.08379,0.31976 -0.556679,0.34578 -0.311578,0.0171 -0.821473,-0.0766 -1.271531,-0.23369 z m -7.652305,-6.23351 c 0.202364,-0.20237 0.169963,-0.41438 -0.0841,-0.55036 -0.263795,-0.14118 -0.541326,-0.0573 -0.637196,0.19249 -0.146361,0.38141 0.417834,0.66134 0.721296,0.35787 z m -7.3555615,0.91897 c -0.5605224,-1.91305 -0.6090783,-3.93913 -0.1392056,-5.80858 0.4706245,-1.87242 2.0273931,-4.41342 3.3792831,-5.51575 l 0.526884,-0.42959 0.06985,0.43674 c 0.09507,0.59454 0.899103,1.68362 1.505197,2.03882 0.598767,0.3509 0.974874,0.36558 1.571275,0.0613 0.51806,-0.26431 0.812189,-0.63091 0.812189,-1.01234 0,-0.52972 -2.076594,-1.5837 -3.294421,-1.6721 l -0.462376,-0.0336 0.925182,-0.53575 c 1.123939,-0.65085 2.584855,-1.18068 3.792826,-1.37555 1.097543,-0.17706 3.315902,-0.0874 4.2852,0.17316 2.284522,0.61414 4.496846,2.00786 5.78027,3.64145 0.695311,0.88503 0.775115,1.11959 0.84689,2.48926 0.127701,2.43678 -0.617173,4.52459 -1.961765,5.49861 -0.685907,0.49686 -0.763749,0.45904 -0.642796,-0.31226 0.192109,-1.22506 -0.201442,-2.95293 -0.936616,-4.11218 -0.75411,-1.18911 -1.96989,-2.17752 -3.38467,-2.75168 l -0.658573,-0.26727 -0.341452,0.36552 c -0.408069,0.43683 -0.84917,0.47134 -2.230698,0.17446 -0.826969,-0.17771 -0.956476,-0.1777 -1.85214,9e-5 -1.248013,0.24774 -1.622286,0.24086 -2.204606,-0.0405 l -0.479075,-0.23147 -0.461377,0.31816 c -0.785804,0.54187 -2.3845507,2.12351 -2.871881,2.84113 -1.0302961,1.51718 -1.4059573,2.99833 -1.3428922,5.29471 0.024216,0.88177 0.037506,1.60321 0.029543,1.60321 -0.00796,0 -0.1249823,-0.37714 -0.2600332,-0.83806 z m 13.2025745,-4.99315 c -0.09678,-0.2522 0.174138,-0.5448 0.465849,-0.50313 0.171134,0.0245 0.241303,0.11852 0.241303,0.32346 0,0.22948 -0.0656,0.29654 -0.318541,0.32564 -0.208656,0.0239 -0.342712,-0.0264 -0.388611,-0.14597 z"
       style="fill:#4a87cd;stroke-width:0.11559372" />
    <path
       inkscape:connector-curvature="0"
       id="path884"
       d="m 22.622318,292.13248 c -0.583913,-0.16402 -1.743197,-0.75811 -2.169765,-1.11191 -0.780614,-0.64743 0.684384,-1.85811 1.802079,-1.48923 0.796957,0.26302 1.953973,1.78304 1.860224,2.44386 -0.03121,0.22004 -0.114085,0.26729 -0.499797,0.28502 -0.254307,0.0117 -0.70104,-0.0458 -0.992741,-0.12774 z m -7.881124,-2.76665 c -1.211913,-0.60823 -2.10776,-1.35019 -2.69078,-2.22853 -0.469294,-0.70704 -1.013306,-2.11794 -0.955309,-2.47763 0.03385,-0.20997 0.05495,-0.21213 0.382613,-0.039 0.190729,0.10076 0.450815,0.20371 0.577968,0.22872 0.127153,0.0249 0.387239,0.0812 0.577969,0.12485 0.968257,0.22166 1.32345,0.25873 1.393449,0.14547 0.03582,-0.0579 0.179086,-0.10015 0.318381,-0.0939 0.240471,0.0111 0.239218,0.0154 -0.02479,0.0894 -0.604365,0.16911 -0.627192,0.82391 -0.02872,0.82391 0.467461,0 0.690409,-0.28287 0.485727,-0.61626 -0.146882,-0.23925 -0.143924,-0.24209 0.06475,-0.0621 0.120265,0.10376 0.322698,0.21979 0.449851,0.25787 0.274533,0.0822 2.066151,0.18632 4.184403,0.24309 0.83916,0.0226 1.574955,0.0712 1.635097,0.10852 0.06014,0.0371 0.139178,-0.0102 0.175632,-0.10519 0.03646,-0.095 0.158944,-0.17194 0.272199,-0.17096 0.175228,0.001 0.180076,0.0186 0.03253,0.11382 -0.134942,0.0872 -0.09649,0.117 0.173391,0.13436 0.749593,0.0482 1.616839,-0.0382 1.700309,-0.16956 0.06532,-0.10275 0.08831,-0.0986 0.08963,0.0158 0.0014,0.12301 0.337554,0.14556 1.671658,0.11202 l 1.669886,-0.0419 -0.243192,0.40815 c -0.811828,1.36252 -1.654319,2.18128 -3.04443,2.95866 -0.642675,0.35941 -0.768236,0.39322 -0.999928,0.26923 -0.34862,-0.18659 -1.344851,-0.17926 -2.329702,0.017 -0.70093,0.13977 -0.902474,0.13527 -1.749141,-0.039 -0.52631,-0.1083 -1.195595,-0.19697 -1.487301,-0.19697 -0.45527,0 -0.566684,0.0491 -0.786762,0.34677 -0.141014,0.19074 -0.313943,0.34679 -0.384289,0.34679 -0.07034,0 -0.579339,-0.22657 -1.131097,-0.50348 z m -7.4097265,-2.52484 c -0.3930177,-1.35193 -0.4721379,-1.93414 -0.4603036,-3.38713 0.013547,-1.66329 0.2102109,-2.61911 0.8465882,-4.11458 0.7016768,-1.64891 2.3906209,-3.80055 3.0373959,-3.86951 0.216214,-0.0231 0.311077,0.0602 0.459954,0.40388 0.239122,0.55195 0.708729,1.10965 1.287259,1.52874 0.832544,0.60309 1.946471,0.33344 2.406525,-0.58254 0.281616,-0.56073 0.143759,-0.72511 -1.234887,-1.47255 l -0.462376,-0.25069 1.502719,-0.0304 c 4.012827,-0.0815 6.322665,0.002 8.611732,0.3136 0.286094,0.0389 0.728241,0.0768 0.982547,0.0845 0.407342,0.0121 0.553756,0.10441 1.230146,0.7756 0.910599,0.90359 1.090346,1.22002 1.249238,2.19927 0.315232,1.94277 -0.144619,4.22453 -1.105195,5.48391 -0.285645,0.3745 -1.189064,1.09146 -1.375318,1.09146 -0.04129,0 -0.0397,-0.33029 0.0036,-0.73396 0.194243,-1.81381 -0.534024,-3.81166 -1.877234,-5.14983 -0.755877,-0.75304 -1.823728,-1.44333 -2.712339,-1.75333 -0.411435,-0.14355 -0.437369,-0.13617 -0.768838,0.21867 -0.404297,0.4328 -0.70345,0.45964 -2.040743,0.18309 -0.92416,-0.19113 -1.254601,-0.18266 -2.730316,0.0699 -0.84064,0.1439 -0.903648,0.13891 -1.423613,-0.11281 l -0.544043,-0.26335 -0.636822,0.43859 c -0.813861,0.56052 -2.1951554,1.91302 -2.6869663,2.63094 -1.1103908,1.6209 -1.7053739,4.16889 -1.4221527,6.09033 0.060913,0.41326 0.095542,0.76823 0.076955,0.78884 -0.018586,0.0206 -0.1146394,-0.24063 -0.2134494,-0.58052 z m 13.4515445,-1.36425 c -0.211301,-0.13655 -0.02879,-0.13655 0.288984,0 0.152439,0.0655 0.172127,0.10148 0.05779,0.10574 -0.09536,0.003 -0.251418,-0.0441 -0.346782,-0.10574 z m -9.786603,-1.96509 c 0,-0.47682 0.02041,-0.67188 0.04535,-0.43347 0.02494,0.23841 0.02494,0.62854 0,0.86694 -0.02494,0.23843 -0.04535,0.0434 -0.04535,-0.43347 z m 9.555416,-1.73075 c -0.13414,-0.0868 -0.144419,-0.15871 -0.0454,-0.31775 0.153675,-0.24685 0.387551,-0.30347 0.623376,-0.15092 0.134142,0.0868 0.14442,0.15869 0.0454,0.31773 -0.153676,0.24686 -0.387552,0.30348 -0.623377,0.15094 z"
       style="fill:#417dc2;stroke-width:0.11559372" />
    <path
       inkscape:connector-curvature="0"
       id="path882"
       d="m 22.401325,292.0337 c -0.697762,-0.23876 -1.505629,-0.6638 -1.99928,-1.05189 -0.620131,-0.4875 0.729879,-1.72186 1.637301,-1.49703 0.807793,0.20014 1.883997,1.36229 2.052897,2.21682 0.13114,0.6635 -0.411162,0.77002 -1.690918,0.3321 z m -7.455796,-2.55637 c -0.445035,-0.211 -1.128564,-0.62096 -1.518953,-0.91102 -0.703169,-0.52246 -1.666214,-1.72044 -1.833186,-2.28041 -0.0474,-0.15894 -0.12375,-0.341 -0.16968,-0.40458 -0.126976,-0.17577 -0.381306,-1.17951 -0.334234,-1.31911 0.0268,-0.0794 0.16418,-0.0584 0.388242,0.0595 0.190729,0.10036 0.450815,0.20279 0.577968,0.2278 0.127153,0.025 0.387239,0.0813 0.577969,0.12486 0.968257,0.22166 1.32345,0.25874 1.393449,0.14548 0.03582,-0.058 0.179086,-0.0993 0.318381,-0.0919 0.234685,0.0124 0.236305,0.0175 0.02208,0.0702 -0.545874,0.13419 -0.706702,0.61756 -0.281232,0.84526 0.185866,0.0994 0.301403,0.0869 0.520172,-0.0564 0.312585,-0.20482 0.353443,-0.39726 0.136739,-0.64403 -0.08587,-0.0978 -0.05069,-0.0893 0.08669,0.021 0.127154,0.1021 0.335222,0.21672 0.462375,0.2548 0.274534,0.0822 2.066152,0.18631 4.184404,0.24309 0.83916,0.0225 1.574955,0.0712 1.635097,0.10851 0.06014,0.0371 0.139178,-0.0102 0.175632,-0.10519 0.03646,-0.095 0.158944,-0.17192 0.2722,-0.17095 0.175227,10e-4 0.180075,0.0186 0.03253,0.11382 -0.134943,0.0872 -0.09649,0.11701 0.173391,0.13436 0.749592,0.0482 1.616838,-0.0382 1.700309,-0.16956 0.06532,-0.10275 0.08831,-0.0986 0.08962,0.0157 0.0014,0.12302 0.337554,0.14555 1.671656,0.11202 l 1.669888,-0.0419 -0.240541,0.40815 c -0.48816,0.82832 -0.370145,0.80173 -3.588274,0.80854 -1.59702,0.003 -2.930965,0.0335 -2.96432,0.0668 -0.03336,0.0333 1.294252,0.0459 2.950245,0.0279 l 3.010893,-0.0327 -0.350321,0.43575 c -0.418051,0.52001 -1.278858,1.18474 -2.170391,1.676 -0.640772,0.35309 -0.654901,0.35527 -1.155937,0.17829 -0.463655,-0.16378 -0.617724,-0.16156 -1.793156,0.0257 -1.206123,0.19217 -1.333124,0.19305 -2.046646,0.0138 -0.418402,-0.10508 -1.04758,-0.19108 -1.398175,-0.19108 -0.574237,0 -0.662869,0.0343 -0.893834,0.34677 -0.141013,0.19073 -0.311624,0.34491 -0.37914,0.34262 -0.06751,-0.002 -0.486874,-0.17679 -0.93191,-0.3878 z m 3.7835,-2.58164 c -0.222398,-0.0275 -0.347451,-0.0959 -0.303933,-0.16645 0.05043,-0.0816 0.0052,-0.0829 -0.142297,-0.004 -0.128626,0.0687 -0.532375,0.0826 -0.996496,0.0344 -0.429142,-0.0446 -0.780258,-0.0422 -0.780258,0.005 0,0.0474 0.221074,0.10596 0.491273,0.1303 0.659388,0.0595 2.210674,0.0602 1.731711,8.7e-4 z m 0.751146,0.0139 c -0.03841,-0.0383 -0.138112,-0.0425 -0.221555,-0.009 -0.09221,0.0369 -0.06483,0.0643 0.06985,0.0698 0.121855,0.005 0.190128,-0.0224 0.151717,-0.0608 z m 1.795699,-0.12713 c -0.142171,-0.0275 -0.402258,-0.0282 -0.577967,-0.002 -0.17571,0.0265 -0.05939,0.049 0.258496,0.0499 0.317883,8.8e-4 0.461645,-0.0208 0.319471,-0.0483 z m -5.405595,-0.15423 c -0.370371,-0.10297 -2.335566,-0.4679 -2.855882,-0.53033 -0.172052,-0.0206 -0.349641,0.022 -0.394642,0.0949 -0.05355,0.0867 -0.01792,0.10786 0.103064,0.0614 0.101687,-0.0391 0.20125,-0.0272 0.221252,0.0262 0.03892,0.10397 2.195639,0.43555 2.868412,0.44094 l 0.404579,0.003 -0.346781,-0.0965 z m 3.147521,0.0502 c -0.03841,-0.0383 -0.13811,-0.0424 -0.221555,-0.009 -0.09222,0.0369 -0.06483,0.0643 0.06985,0.0698 0.121854,0.005 0.190127,-0.0222 0.151716,-0.0607 z m -6.588842,-0.69355 c -0.03841,-0.0383 -0.138111,-0.0424 -0.221555,-0.009 -0.09221,0.0369 -0.06483,0.0643 0.06984,0.0698 0.121854,0.005 0.190127,-0.0222 0.151715,-0.0608 z m -5.2056317,0.44552 c -0.5680697,-2.08285 -0.4982154,-4.40264 0.1909191,-6.34024 0.2926278,-0.82275 1.0021436,-2.1693 1.3643881,-2.58939 0.1918826,-0.22251 0.3099567,-0.33072 0.2623851,-0.24043 -0.066128,0.12548 -0.034412,0.14404 0.1347603,0.0787 0.1216875,-0.0471 0.5562248,-0.16326 0.9656371,-0.25843 0.409412,-0.0952 0.911391,-0.24285 1.115509,-0.32814 0.344457,-0.14392 0.388197,-0.13543 0.608682,0.11815 0.434553,0.49977 1.15509,0.89941 1.592021,0.88298 0.657717,-0.0247 1.33723,-0.46733 1.542611,-1.00479 l 0.176478,-0.46183 2.138483,0.0193 c 2.14545,0.0194 4.149538,0.10817 4.79714,0.21251 0.190729,0.0309 0.684894,0.10552 1.098141,0.16619 0.413247,0.0606 0.881401,0.14126 1.040343,0.17912 0.850057,0.20248 1.910277,0.38147 1.985216,0.33516 0.161353,-0.0997 0.444108,0.64038 0.580961,1.52064 0.251459,1.61746 -0.175093,3.73466 -1.004372,4.98521 -0.312144,0.47073 -1.25312,1.30917 -1.469261,1.30917 -0.02156,0 -0.04277,-0.5852 -0.04713,-1.30042 -0.01224,-2.00445 -0.532025,-3.24827 -1.945807,-4.65617 -0.790604,-0.78733 -1.710589,-1.37307 -2.710895,-1.726 -0.462154,-0.16306 -0.470172,-0.1612 -0.616299,0.1437 -0.222078,0.46335 -0.643373,0.56111 -1.623658,0.37679 -1.361384,-0.25599 -1.856495,-0.26691 -2.856377,-0.0629 -0.970738,0.198 -1.276129,0.17597 -1.944742,-0.14021 -0.491655,-0.2325 -0.619042,-0.16516 -2.013087,1.06422 -2.2420339,1.97719 -3.143166,3.97084 -3.1485301,6.96573 -0.00139,0.77881 -0.00923,1.41602 -0.017384,1.41602 -0.00817,0 -0.096425,-0.2991 -0.1961272,-0.66468 z m 13.5596857,-0.95366 c -0.211301,-0.13655 -0.02879,-0.13655 0.288984,0 0.152439,0.0655 0.172127,0.10148 0.05779,0.10575 -0.09536,0.003 -0.251418,-0.044 -0.346782,-0.10575 z m -9.786603,-1.96509 c 0,-0.47682 0.02041,-0.67189 0.04535,-0.43347 0.02494,0.2384 0.02494,0.62853 0,0.86694 -0.02494,0.23842 -0.04535,0.0434 -0.04535,-0.43347 z m 9.555416,-1.73076 c -0.13414,-0.0868 -0.144419,-0.1587 -0.0454,-0.31774 0.153675,-0.24684 0.387551,-0.30347 0.623376,-0.15093 0.134142,0.0868 0.14442,0.1587 0.0454,0.31775 -0.153676,0.24684 -0.387552,0.30347 -0.623377,0.15092 z m 4.565362,-5.84936 c -0.06325,-0.10025 -0.297064,-0.22053 -0.519582,-0.26742 -0.37388,-0.0788 -0.382486,-0.0897 -0.113432,-0.14351 0.211764,-0.0423 0.38511,0.0304 0.635766,0.26729 0.18954,0.17902 0.292337,0.32557 0.228435,0.32563 -0.0639,8e-5 -0.167937,-0.0818 -0.231187,-0.18199 z m -14.889476,-0.15844 c 0.336603,-0.36511 0.802102,-0.41565 0.885648,-0.0962 0.04687,0.17922 0.02946,0.20578 -0.06981,0.10652 -0.191101,-0.19111 -0.551247,-0.16251 -0.828266,0.0657 -0.2168133,0.17865 -0.2155993,0.17122 0.01242,-0.0762 z m 11.898245,-0.37677 c -0.08135,-0.0448 -0.611257,-0.11359 -1.177582,-0.15281 -0.566325,-0.0393 -1.051948,-0.0936 -1.079162,-0.12081 -0.04646,-0.0464 0.6299,-0.0957 0.834158,-0.0609 0.05156,0.009 0.545724,0.0681 1.09814,0.13155 1.884594,0.21674 2.037444,0.23855 2.098105,0.2992 0.09038,0.0903 -1.601576,-10e-4 -1.773659,-0.0964 z m -8.61918,-0.14112 c -0.251218,-0.13914 -0.141441,-0.15567 0.982546,-0.14805 1.006309,0.006 1.081958,0.0171 0.369513,0.05 -0.492718,0.0227 -0.895852,0.0912 -0.895852,0.15214 0,0.14784 -0.116529,0.13402 -0.456207,-0.0541 z m 2.768081,-0.18198 c 0,-0.0637 0.05509,-0.11558 0.122417,-0.11558 0.06733,0 0.09026,0.052 0.05098,0.11558 -0.03929,0.0637 -0.09439,0.11561 -0.122416,0.11561 -0.02804,0 -0.05098,-0.052 -0.05098,-0.11561 z m 0.520172,0 c -0.03929,-0.0637 0.01272,-0.11558 0.115593,-0.11558 0.102865,0 0.154887,0.052 0.115595,0.11558 -0.03929,0.0637 -0.09131,0.11561 -0.115595,0.11561 -0.02428,0 -0.0763,-0.052 -0.115593,-0.11561 z m 1.444922,-0.0246 c 0,-0.12062 0.133973,-0.11238 0.345323,0.0213 0.135126,0.0855 0.116565,0.10453 -0.08669,0.0893 -0.142245,-0.0111 -0.258628,-0.0604 -0.258628,-0.11052 z m 0.780257,0.0586 c 0.143048,-0.0276 0.377125,-0.0276 0.520171,0 0.143048,0.0276 0.02601,0.0501 -0.260084,0.0501 -0.286094,0 -0.403134,-0.0226 -0.260087,-0.0501 z m -1.611087,-0.11299 c 0.08344,-0.0333 0.183143,-0.0292 0.221554,0.009 0.03841,0.0383 -0.02986,0.0657 -0.151716,0.0608 -0.134661,-0.005 -0.162051,-0.0329 -0.06983,-0.0698 z"
       style="fill:#3d7cc6;stroke-width:0.11559372" />
    <path
       inkscape:connector-curvature="0"
       id="path878"
       d="m 22.805903,292.1359 c -0.658602,-0.1609 -2.140431,-0.90908 -2.426419,-1.22509 -0.176839,-0.19541 -0.177128,-0.23863 -0.0039,-0.57374 0.373631,-0.72252 1.389869,-1.02972 2.133779,-0.64503 0.823274,0.42573 1.830542,2.04537 1.511277,2.43007 -0.169542,0.20428 -0.423335,0.20716 -1.214797,0.0138 z m -7.406862,-2.48087 c -0.856443,-0.34587 -1.983756,-1.07519 -2.493954,-1.61348 -0.276441,-0.29166 -0.413524,-0.46312 -0.304628,-0.38103 0.450613,0.33972 4.320771,0.6962 8.702724,0.80161 l 3.236626,0.0778 -0.789978,0.44886 c -0.739463,0.42017 -0.817935,0.44049 -1.227146,0.31789 -0.593452,-0.17781 -1.145425,-0.16474 -2.217495,0.0526 -0.865966,0.17545 -0.950303,0.17294 -1.93314,-0.0577 -0.565218,-0.1327 -1.135821,-0.24128 -1.268008,-0.24128 -0.377287,0 -0.790129,0.23122 -0.951611,0.53295 -0.169018,0.31581 -0.132238,0.31278 -0.75339,0.062 z m -8.1208679,-2.99345 c -0.074116,-0.23841 -0.2196489,-1.01867 -0.3234076,-1.7339 -0.174614,-1.20367 -0.1745537,-1.39845 8.3e-4,-2.61764 0.1042046,-0.72447 0.2762235,-1.5513 0.382264,-1.83743 0.1736265,-0.46845 0.2741151,-0.56116 1.0104022,-0.93215 0.4496801,-0.22657 1.1473505,-0.54235 1.550378,-0.70173 l 0.7327793,-0.2898 -0.7704433,0.81672 c -1.3863616,1.4696 -1.9670561,2.61042 -2.3164198,4.55074 -0.1382773,0.76799 -0.1829208,1.4407 -0.1425709,2.14837 0.032308,0.56667 0.047994,1.0303 0.034856,1.0303 -0.013137,0 -0.08453,-0.19507 -0.1586457,-0.43348 z M 24.30746,283.71395 c -9.17e-4,-1.05408 -0.05156,-1.44694 -0.267219,-2.07381 -0.437816,-1.27264 -1.190267,-2.28652 -2.494197,-3.3608 l -0.33511,-0.27609 0.739687,0.10352 c 1.285852,0.18005 3.604344,0.68095 4.222722,0.91232 0.713481,0.26694 0.759274,0.38631 0.61924,1.61412 -0.210736,1.84771 -0.648664,2.84153 -1.652351,3.74982 -0.38369,0.34723 -0.727766,0.63131 -0.764614,0.63131 -0.03684,0 -0.06751,-0.5852 -0.06816,-1.30043 z m -3.755635,-1.99401 c -0.114806,-0.13833 -0.114806,-0.20843 0,-0.34677 0.186323,-0.22451 0.395334,-0.22006 0.588349,0.0125 0.131086,0.15794 0.121201,0.21009 -0.06574,0.34677 -0.277884,0.2032 -0.344926,0.2016 -0.522611,-0.0125 z m -2.627557,-3.83689 c 0.112469,-0.0294 0.268521,-0.0274 0.346781,0.004 0.07825,0.0317 -0.01376,0.0557 -0.204489,0.0533 -0.190729,-0.002 -0.254761,-0.0283 -0.142292,-0.0575 z m -3.982958,-0.11446 c 0.08344,-0.0333 0.183143,-0.0292 0.221554,0.009 0.03841,0.0383 -0.02986,0.0657 -0.151716,0.0608 -0.134661,-0.005 -0.162052,-0.0329 -0.06985,-0.0698 z m 3.467811,0 c 0.08344,-0.0333 0.183143,-0.0292 0.221554,0.009 0.03841,0.0383 -0.02986,0.0657 -0.151716,0.0608 -0.134661,-0.005 -0.162051,-0.0329 -0.06983,-0.0698 z"
       style="fill:#2c5689;stroke-width:0.11559372" />
  </g>
</svg>
